<svg xmlns="http://www.w3.org/2000/svg" viewBox="0 0 709.21 224.59">
    <defs>
        <style>
        .cls-1 {
            fill: #fff;
        }

        .cls-2 {
            fill: #79a7b1;
        }

        .cls-3 {
            fill: #efbb59;
        }
        </style>
    </defs>
    <rect class="cls-1" x="382.24" width="155.87" height="155.87" rx="30.28" />
    <path class="cls-2" d="M487.23,220.53H506.5q7.11,0,7.12,6.59v58.56q0,7.21-7.12,7.22H487.23q-7,0-7-7.22V227.12Q480.21,220.53,487.23,220.53Zm.41,30.9h18.44V230.26c0-1.74-.81-2.61-2.41-2.61H490.26a2.31,2.31,0,0,0-2.62,2.61Zm16,34.35c1.6,0,2.41-1,2.41-2.94V258.55H487.64v24.29c0,2,.88,2.94,2.62,2.94ZM530,276.56c-.41,3-.9,5.87-1.46,8.59a122.27,122.27,0,0,1-6.08,22.41c-.62,2.3-2.26,3.46-4.92,3.46s-4.19-1.26-4.19-3.77a19.72,19.72,0,0,1,.74-2.31,124.92,124.92,0,0,0,6.38-22.1,128.66,128.66,0,0,0,2.83-28.06V222.94q0-6.6,6.81-6.6h35.61q6.6,0,6.59,6.6v80.43q0,6.28-11.2,6.28a45.33,45.33,0,0,1-13.83-2.09c-2-.56-2.93-1.95-2.93-4.19q0-4.19,3.35-4.19l12.47,2.2q4.18,0,4.19-2.2V276.56Zm1.26-27.65v5.79q0,7.8-.52,14.74h33.62V248.91Zm33.1-7.12V227.21c0-2.5-.81-3.75-2.41-3.75h-29q-1.68,0-1.68,3.75v14.58Z" transform="translate(-66.06 -185.74)" />
    <rect class="cls-1" x="553.34" width="155.87" height="155.87" rx="30.28" />
    <path class="cls-2" d="M655.35,263.52h11.2q5.87,0,5.87,5.34v21.89q0,4.71,5.23,8,6.29,3.77,17.07,3.77h48.07c2.52,0,3.77,1.4,3.77,4.19,0,2.44-1.25,3.67-3.77,3.67H697.55a59.87,59.87,0,0,1-15.08-1.78A31.25,31.25,0,0,1,671,303.21l-1.36-.73a2.71,2.71,0,0,0-1.68.84,39.82,39.82,0,0,1-11,6.81,13.19,13.19,0,0,1-4.51,1.57q-4.08-.21-4.29-3.77,0-2.83,3-3.77c4.74-1.75,8.1-3.32,10.05-4.72q3.35-2.4,3.35-8.69v-18c0-1.12-.59-1.68-1.78-1.68h-7.43c-2.52,0-3.77-1.25-3.77-3.77S652.83,263.52,655.35,263.52Zm-1-25.66a5.89,5.89,0,0,1,2.62.84q3.26,1.89,6,3.56a61,61,0,0,1,7.75,5.66,4.24,4.24,0,0,1,1.26,2.2c0,2.51-1.09,3.77-3.25,3.77a5.35,5.35,0,0,1-3.77-1.36q-4.4-3-7.44-4.93a58.33,58.33,0,0,0-5.55-2.93,5,5,0,0,1-1.25-3Q650.74,237.87,654.4,237.86Zm3.35-21.36a5.38,5.38,0,0,1,2.62.94q3.15,1.78,5.76,3.46a50.23,50.23,0,0,1,7.65,5.76,4,4,0,0,1,1.15,2q0,3.87-3.35,3.87a6.17,6.17,0,0,1-3.77-1.25q-4.18-3.15-7-4.93c-1.67-1-3.49-2.06-5.44-3a4.46,4.46,0,0,1-1.37-3Q654,216.51,657.75,216.5Zm36.45-.84a3.16,3.16,0,0,1,2.2,1.26,60.26,60.26,0,0,1,6.6,9.32,6,6,0,0,1,.42,2h14.76c.63-.77,1.26-1.57,1.89-2.41a77,77,0,0,0,5.55-8.38,3.92,3.92,0,0,1,3.35-1.78,4,4,0,0,1,2.72,1.15,3.6,3.6,0,0,1,1.15,2.62,6.13,6.13,0,0,1-.83,3q-2.1,2.82-4.4,5.55l-.21.21h15.39q3.47,0,3.46,3.4,0,3.72-3.46,3.72H715.35l-1.88,8h18.95q6.6,0,6.6,6.4v39.88q0,6.6-6.6,6.61H689.17q-6.6,0-6.6-6.61V249.71q0-6.41,6.6-6.4h16.34l1.88-8H680c-2.24,0-3.35-1.24-3.35-3.72,0-2.27,1.11-3.4,3.35-3.4h16.23c-1.75-2.37-3.49-4.57-5.24-6.6a5.43,5.43,0,0,1-.94-2.2Q690,215.66,694.2,215.66ZM690,258.08h41.58v-5.63c0-1.35-.74-2-2.2-2H692.21c-1.47,0-2.2.67-2.2,2Zm0,15h41.58v-8.38H690Zm39.38,16c1.46,0,2.2-.88,2.2-2.62v-6.6H690v6.6c0,1.74.73,2.62,2.2,2.62Z" transform="translate(-66.06 -185.74)" />
    <path class="cls-1" d="M517.12,399V360.73h6.35l7.55,27.1q1.05,3.8,1.53,5.67.54-2.08,1.69-6.14l7.64-26.63h5.68V399h-4.07V367l-9.27,32h-3.81l-9.22-32.59V399Z" transform="translate(-66.06 -185.74)" />
    <path class="cls-1" d="M559.46,399h3.92V376.4h-3.92Zm0-27.73v3.92h3.92v-3.92Z" transform="translate(-66.06 -185.74)" />
    <path class="cls-1" d="M630.46,399V360.73h11a22.11,22.11,0,0,1,5.68.55A10.27,10.27,0,0,1,651.8,364a16.08,16.08,0,0,1,3.78,6.54,30.52,30.52,0,0,1,1.25,9.1,32.07,32.07,0,0,1-.85,7.73A20.47,20.47,0,0,1,653.8,393a13,13,0,0,1-2.9,3.48,11,11,0,0,1-3.81,1.92A18.51,18.51,0,0,1,642,399Zm4.22-4.52h6.81a14,14,0,0,0,5-.7,6.91,6.91,0,0,0,2.86-2,12.79,12.79,0,0,0,2.34-4.84,28.11,28.11,0,0,0,.83-7.38c0-4-.54-7.08-1.64-9.23a8.94,8.94,0,0,0-4-4.32,14,14,0,0,0-5.46-.78h-6.7Z" transform="translate(-66.06 -185.74)" />
    <path class="cls-1" d="M686.2,385q0-7.46,3.33-11.05a9,9,0,0,1,6.8-3,8.85,8.85,0,0,1,7.29,3.63c1.88,2.41,2.83,5.76,2.83,10a21.61,21.61,0,0,1-1.25,8.15,10.33,10.33,0,0,1-3.65,4.62,9,9,0,0,1-5.22,1.64,8.8,8.8,0,0,1-7.33-3.62Q686.2,391.78,686.2,385Zm3.76,0c0,3.44.61,6,1.81,7.72a5.31,5.31,0,0,0,9.1,0q1.82-2.58,1.81-7.86c0-3.32-.6-5.84-1.82-7.55a5.32,5.32,0,0,0-9.09,0C690.57,379,690,381.54,690,385Z" transform="translate(-66.06 -185.74)" />
    <path class="cls-1" d="M677.62,371.28v2.4A8.73,8.73,0,0,0,671,370.8a9,9,0,0,0-6.79,3q-3.35,3.58-3.34,11,0,6.81,2.8,10.42a8.82,8.82,0,0,0,7.33,3.61,9.25,9.25,0,0,0,6.64-2.84v2.85h3.48V371.28Zm-2.1,21.26a5.3,5.3,0,0,1-9.09,0q-1.81-2.56-1.82-7.73t1.82-7.71a5.31,5.31,0,0,1,9.08,0c1.22,1.71,1.82,4.22,1.82,7.54C677.33,388.2,676.73,390.83,675.52,392.54Z" transform="translate(-66.06 -185.74)" />
    <path class="cls-1" d="M591.2,373.91a8.28,8.28,0,0,0-6.76-3.25,8.41,8.41,0,0,0-5.92,2.28v-1.66H575V399h3.48V383.19c0-3.05.57-5.35,1.7-6.87a5,5,0,0,1,8.41,0c1.13,1.52,1.69,3.79,1.69,6.76V399h3.48V382.85C593.8,379.06,593,376.06,591.2,373.91Z" transform="translate(-66.06 -185.74)" />
    <path class="cls-1" d="M618,371.28v1.93c-.06-.06-.11-.12-.17-.17a8.79,8.79,0,0,0-6.17-2.32,9,9,0,0,0-6.22,2.29,3.67,3.67,0,0,0-.43.37c-2.15,2.15-3.22,5.43-3.22,9.87v3.62c0,3.79.87,6.79,2.74,8.94a8.11,8.11,0,0,0,.91.94,8.83,8.83,0,0,0,6.19,2.32,9.07,9.07,0,0,0,6.2-2.29v1q0,4.59-1.79,6.88a5.39,5.39,0,0,1-8.82,0,7.45,7.45,0,0,1-1.48-2.79l-3.46,1a10.28,10.28,0,0,0,2.24,4.16,8.88,8.88,0,0,0,7.1,3.26,9.07,9.07,0,0,0,6.62-2.66c2.17-2.15,3.24-5.43,3.24-9.88V371.28Zm-.17,15.27c0,3.05-.6,5.33-1.78,6.86a5.4,5.4,0,0,1-8.83,0c-1.19-1.53-1.78-3.79-1.78-6.76v-3.4c0-3.05.59-5.35,1.78-6.87a5.4,5.4,0,0,1,8.83,0c1.18,1.52,1.78,3.79,1.78,6.76Z" transform="translate(-66.06 -185.74)" />
    <rect class="cls-1" y="56.04" width="141.7" height="141.7" rx="27.52" />
    <path class="cls-2" d="M106,364.68V260.58h14.64l32.65,69.52V260.58h14.65v104.1H153.24L120.59,296.8v67.88Z" transform="translate(-66.06 -185.74)" />
    <rect class="cls-3" x="39.88" y="164.15" width="14.65" height="14.65" />
    <rect class="cls-3" x="87.18" y="74.84" width="14.65" height="14.65" />
    <rect class="cls-1" x="267.17" y="92.81" width="104.93" height="104.93" rx="20.38" />
    <path class="cls-2" d="M362.91,366.44l-16.82-70.85h13.66l10,46.43,9.16-46.43h13.56L401.29,342l10.15-46.43H425.3l-17.06,70.85H394.73l-9.16-45.56-9,45.56Z" transform="translate(-66.06 -185.74)" />
    <rect class="cls-1" x="151.97" y="92.81" width="104.93" height="104.93" rx="20.38" />
    <path class="cls-2" d="M264.24,336H296c.07-1.41.12-2.86.12-4.36q0-18.55-7.27-29t-18.38-10.5q-11.12,0-18.38,10.5t-7.27,29q0,15.51,5.53,25.71Q257,369.36,270.5,370q13.47-.62,20.12-12.68a47.32,47.32,0,0,0,5.14-17.9h-13a33.78,33.78,0,0,1-3.48,11.73c-2.13,3.85-4.62,5.55-8.75,5.88-4.13-.33-6.62-2-8.79-6-2.57-4.77-3.91-11.35-3.91-19.46,0-9.64,1.67-16.91,5-21.66,3-4.35,5.5-4.94,7.74-4.94s4.75.59,7.74,4.92c2.19,3.15,3.65,7.41,4.39,12.73H264.24Z" transform="translate(-66.06 -185.74)" />
    <rect class="cls-3" x="198.18" y="136.9" width="13.54" height="13.31" />
</svg>